<svg width="120" height="120" viewBox="0 0 120 120" fill="none" xmlns="http://www.w3.org/2000/svg">
  <circle cx="60" cy="60" r="60" fill="#2563EB" fill-opacity="0.1"/>
  
  <!-- Stack of Reports -->
  <rect x="30" y="70" width="60" height="30" rx="2" fill="white" stroke="#1E40AF" stroke-width="1"/>
  <rect x="35" y="60" width="60" height="30" rx="2" fill="white" stroke="#1E40AF" stroke-width="1"/>
  <rect x="40" y="50" width="60" height="30" rx="2" fill="white" stroke="#1E40AF" stroke-width="1"/>
  <rect x="45" y="40" width="60" height="30" rx="2" fill="white" stroke="#1E40AF" stroke-width="1"/>
  <rect x="50" y="30" width="60" height="30" rx="2" fill="#FFFFFF" stroke="#1E40AF" stroke-width="1"/>
  
  <!-- Report Cover Design -->
  <rect x="50" y="30" width="60" height="8" fill="#2563EB"/>
  <text x="80" y="37" text-anchor="middle" font-family="Arial" font-size="6" font-weight="bold" fill="white">ANNUAL REPORT</text>
  
  <!-- Report Content -->
  <path d="M55 45H105" stroke="#1E40AF" stroke-width="0.5"/>
  <path d="M55 50H105" stroke="#1E40AF" stroke-width="0.5"/>
  <path d="M55 55H85" stroke="#1E40AF" stroke-width="0.5"/>
  
  <!-- Chart on Report -->
  <line x1="90" y1="55" x2="90" y2="45" stroke="#333333" stroke-width="0.5"/>
  <line x1="90" y1="55" x2="105" y2="55" stroke="#333333" stroke-width="0.5"/>
  <path d="M90 52L93 50L96 51L99 48L102 46L105 47" stroke="#10B981" stroke-width="1"/>
  
  <!-- Magnifying Glass -->
  <circle cx="40" cy="50" r="15" fill="white" stroke="#1E40AF" stroke-width="1.5" fill-opacity="0.8"/>
  <line x1="30" y1="60" x2="25" y2="65" stroke="#1E40AF" stroke-width="1.5"/>
  <line x1="25" y1="65" x2="20" y2="70" stroke="#1E40AF" stroke-width="2"/>
  
  <!-- Financial Data Highlights -->
  <text x="40" y="46" text-anchor="middle" font-family="Arial" font-size="5" fill="#333333">REVENUE</text>
  <text x="40" y="53" text-anchor="middle" font-family="Arial" font-size="7" font-weight="bold" fill="#10B981">$24.6B</text>
</svg> 