<?xml version="1.0" encoding="UTF-8"?>
<svg width="100" height="100" viewBox="0 0 100 100" xmlns="http://www.w3.org/2000/svg">
  <path d="M70.5,50.5c0,12.5,9.1,16.7,9.3,16.8c-0.1,0.3-1.1,3.6-3.5,7.1c-2.1,3.1-4.3,6.2-7.8,6.2c-3.3,0-4.3-2-8-2c-3.7,0-4.8,2-8,2c-3.5,0-5.7-3.1-7.8-6.2c-4.3-6.2-7.6-14.7-7.6-23.6c0-14.7,12-22.3,22.4-22.3c3.7,0,7.2,2.5,9.5,2.5c2.3,0,5.9-2.5,9.9-2.1c5.3,0.2,10.2,3.1,12.8,7.9C69.9,41.3,70.5,45.7,70.5,50.5z M58.3,35.8c1.9-2.3,3.2-5.5,2.9-8.7c-2.8,0.1-6.2,1.9-8.2,4.2c-1.8,2.1-3.4,5.1-3,8.1C52.5,40.1,56.4,38.1,58.3,35.8z" fill="#000000"/>
</svg> 