<svg width="120" height="120" viewBox="0 0 120 120" fill="none" xmlns="http://www.w3.org/2000/svg">
  <circle cx="60" cy="60" r="60" fill="#2563EB" fill-opacity="0.1"/>
  <path d="M20 90H100" stroke="#1E40AF" stroke-width="2"/>
  <path d="M20 90L30 70L40 85L50 40L60 60L70 30L80 55L90 50L100 70" stroke="#2563EB" stroke-width="3"/>
  
  <!-- Volatility indicators -->
  <path d="M30 70 L30 90" stroke="#F97316" stroke-width="1" stroke-dasharray="2,2"/>
  <path d="M40 85 L40 90" stroke="#F97316" stroke-width="1" stroke-dasharray="2,2"/>
  <path d="M50 40 L50 90" stroke="#F97316" stroke-width="1" stroke-dasharray="2,2"/>
  <path d="M60 60 L60 90" stroke="#F97316" stroke-width="1" stroke-dasharray="2,2"/>
  <path d="M70 30 L70 90" stroke="#F97316" stroke-width="1" stroke-dasharray="2,2"/>
  <path d="M80 55 L80 90" stroke="#F97316" stroke-width="1" stroke-dasharray="2,2"/>
  <path d="M90 50 L90 90" stroke="#F97316" stroke-width="1" stroke-dasharray="2,2"/>
  
  <!-- Volatility ranges -->
  <circle cx="50" cy="40" r="3" fill="#F97316"/>
  <circle cx="70" cy="30" r="3" fill="#F97316"/>
  <circle cx="90" cy="50" r="3" fill="#F97316"/>
  
  <!-- Risk Indicator -->
  <g transform="translate(60, 25)">
    <path d="M-15,0 L0,-15 L15,0 L0,15 Z" fill="#F97316" fill-opacity="0.8"/>
    <text x="0" y="5" text-anchor="middle" font-family="Arial" font-size="14" font-weight="bold" fill="white">!</text>
  </g>
</svg> 